# xmcd
# 
# Track frame offsets:
#     150
#     17650
#     33550
#     55145
# 
# Disc length: 1036
# 
# Revision: 1
# Processed by: cddbd v1.5.2PL0 Copyright (c) Steve Scherf et al.
# Submitted via: fre:ac v1.0.31
# 
DISCID=2a040a04
DTITLE=T-Spoon - Tom's Party
DYEAR=1998
DGENRE=Dance
TTITLE0=Tom's Party [Radio Edit]
TTITLE1=Tom's Party [Say No More]
TTITLE2=Tom's Party [Extended Radio Mix]
TTITLE3=Tom's Party [Club Mix]
EXTD=
EXTT0=
EXTT1=
EXTT2=
EXTT3=
PLAYORDER=
